<svg xmlns="http://www.w3.org/2000/svg" height="36.609mm" width="161.05mm" viewBox="0 0 570.65156 129.71572"><path d="M20.36 41.04q-.18 7.74-.18 16.2 0 8.28.54 15.3.72 7.02 1.98 11.52 1.44 4.5 3.96 4.5 1.98 0 3.42-1.8t2.88-4.86q1.44-2.7 2.52-5.94 1.08-3.42 1.8-6.66.9-3.24 1.44-5.94.54-2.88.72-4.5.18-.9.72-1.26.54-.54 1.08-.54.72 0 1.08.54.54.36.54 1.26-.18 2.16-.9 6.12t-1.98 8.28q-1.08 4.32-2.88 8.46t-4.14 6.84q-3.24 3.78-6.84 3.6-5.94-.36-9.72-5.22-3.6-4.86-5.58-12.06-1.98-7.38-2.7-16.02-.54-8.64-.54-16.74L2 42.66q-1.8 0-1.98-1.62t1.8-1.98l5.76-.54q.18-6.48.54-11.52.36-5.22.54-8.1 0-1.62 1.98-2.52t4.14-.9q2.34-.18 4.32.72t2.16 2.7q0 1.8-.18 6.84-.18 4.86-.54 11.7l6.3-.72q1.44-.18 1.62 1.62.18 1.62-1.44 1.98l-6.66.72z"/><path d="M86.39 88.56q-3.06 3.42-6.3 3.6-5.04.36-8.28-3.6-3.06-3.96-4.68-9.36-1.44 4.86-4.32 8.1-2.88 3.06-7.92 3.42-5.04.18-8.28-2.7t-5.22-7.56q-1.8-4.86-2.34-10.8-.36-5.94.18-11.52.54-5.76 2.16-10.62t3.96-7.56q1.62-1.8 3.96-2.7 2.34-1.08 4.86-1.26 2.7-.18 5.04.72 2.52.72 4.32 2.34v-.54q0-2.16 1.8-3.06 1.98-1.08 4.14-.9 2.34 0 4.32 1.26 1.98 1.08 2.34 2.88l.54 11.16q.18 1.98.54 5.76t.9 8.1 1.26 8.82q.72 4.32 1.44 7.56.9 3.24 1.8 4.86 1.08 1.44 1.98 0 1.08-1.44 1.8-3.06 1.44-2.7 2.52-5.94 1.08-3.42 1.8-6.66.9-3.24 1.44-5.94.54-2.88.72-4.5.18-.9.72-1.26.54-.54 1.08-.54.72 0 1.08.54.54.36.54 1.26-.18 2.16-.9 6.12t-1.98 8.28q-1.08 4.32-2.88 8.46t-4.14 6.84zM64.07 47.7q-.54-1.98-1.62-3.78t-3.06-2.7q-2.52-.54-4.14 1.98t-2.52 6.48q-.9 3.78-1.08 8.28t0 7.92q.18 3.24.72 7.02.72 3.6 1.62 6.66 1.08 2.88 2.52 4.68t3.06 1.08q2.7-2.7 3.96-7.92t1.44-10.98q.36-5.94-.18-10.98-.36-5.22-.72-7.74z"/><path d="M144.5 88.56q-1.44 1.8-3.78 3.06-2.16 1.44-5.22 1.8-3.96.36-7.2-2.52-3.24-3.06-5.22-10.62-.54-2.34-1.08-5.94-.36-3.78-.9-8.1-.36-4.32-.9-8.64-.54-4.5-1.26-8.1-.9-3.78-2.52-5.94-1.44-2.16-3.42-1.8-3.06 1.44-4.32 7.56-1.26 5.76-1.62 16.74-.18 10.8-.18 24.84 0 1.62-1.98 2.34-1.98.9-4.32.72-2.16 0-4.14-.9-1.98-.72-2.16-2.16-.72-7.92-1.08-14.58-.18-6.66-.36-12.96 0-6.48-.18-12.96t-.9-14.04q.18-1.98 1.98-2.88 1.98-.9 4.14-.72 2.34 0 4.32 1.08 1.98.9 2.16 2.52l1.26 9.18q.9-2.88 3.06-5.04 2.16-2.34 4.86-3.6t5.4-1.44q2.88-.18 5.4.9 3.06 1.44 4.86 4.68t2.7 7.74q1.08 4.32 1.62 9.36.54 4.86.9 9.72 0 .72.18 3.78.36 3.06.9 6.48t1.44 6.3 2.16 3.24q1.8.54 5.4-5.76 1.44-2.7 2.52-5.94 1.08-3.42 1.8-6.66.9-3.24 1.44-5.94.54-2.88.72-4.5.18-.9.72-1.26.54-.54 1.08-.54.72 0 1.08.54.54.36.54 1.26-.18 2.16-.9 6.12t-1.98 8.28q-1.08 4.32-2.88 8.46t-4.14 6.84z"/><path d="M150.5 2.88q.18-1.44 1.98-2.16Q154.46 0 156.8 0t4.14.72q1.98.72 2.16 2.16v43.38q2.34-2.52 6.12-5.4 3.96-2.88 7.92-4.32 2.88-1.08 7.2-1.08 4.5-.18 6.84 1.98 1.8 1.8 2.16 4.14.54 2.16 0 4.68-.54 2.34-1.8 4.68-1.08 2.34-2.34 4.32l-1.26 1.98q4.86 2.88 6.3 8.1 1.62 5.22 1.98 10.8.36 5.4.54 10.08.36 4.68 2.88 6.48 2.88-1.62 5.22-6.3 2.52-4.68 4.14-9.9 1.8-5.4 2.7-10.26 1.08-5.04 1.44-7.38.18-.9.72-1.26.54-.54 1.08-.54.72 0 1.08.54.54.36.54 1.26-.36 2.88-1.26 8.1-.9 5.04-2.7 10.62-1.62 5.4-4.32 10.44-2.52 4.86-5.94 7.38-2.7 1.98-6.12 1.98t-6.12-2.34q-3.06-2.52-4.14-7.02-.9-4.5-1.44-9.36-.36-4.86-1.08-9.18-.54-4.5-2.88-7.02-1.62 1.26-3.96 2.34-2.34.9-4.86 1.62t-4.86 1.08q-2.16.18-3.78 0v24.66q-.18 1.44-2.16 2.16t-4.32.72q-2.16.18-4.14-.54-1.8-.54-1.98-1.98V2.88zm29.7 37.98q-1.62-1.26-4.14 0-2.52 1.08-5.22 3.24-2.52 1.98-4.86 4.5-2.16 2.34-2.88 3.42v9.54q4.68-3.24 10.8-4.68 1.08-1.08 2.7-3.24t2.88-4.5q1.26-2.52 1.62-4.86.54-2.34-.9-3.42z"/><path d="M235.76 89.1q-6.84 0-11.88-3.96-4.86-3.96-7.92-9.9-2.88-6.12-3.6-13.14t.9-12.96q1.8-5.94 6.12-9.72 4.5-3.78 11.7-3.6 4.68.18 7.56 3.06t3.96 7.38q1.26 4.32 1.08 9.72-.18 5.22-1.62 10.44-1.26 5.04-3.42 9.36t-4.86 6.48q4.5 2.88 8.46 1.08t6.84-5.76q3.06-4.14 4.86-9.36t2.16-9.36q0-.9.54-1.26.72-.54 1.26-.54.72 0 1.08.54.54.36.54 1.26-.54 5.04-2.16 10.44-1.62 5.22-4.5 9.72-2.88 4.32-7.2 7.2-4.14 2.88-9.9 2.88zm-4.32-9.54q3.24-4.32 4.68-11.16 1.62-7.02 1.62-13.5t-1.62-11.16-4.86-4.68q-1.8 0-3.6 1.98t-2.88 6.12q-1.08 3.6-1.08 8.1.18 4.5 1.08 9t2.52 8.64q1.8 3.96 4.14 6.66z"/><path d="M253.81 40.5q.18-1.8 2.16-2.7 1.98-1.08 4.32-1.08t4.32 1.08q1.98.9 2.16 2.7.18 2.34.36 6.66t.54 9.54.72 10.62q.54 5.22 1.08 9.54.72 4.32 1.62 7.2.9 2.7 1.98 2.52 1.44-.18 2.52-2.88t1.62-7.02q.72-4.5.9-9.9.36-5.58.54-11.16t.18-10.8q.18-5.22.36-9 0-1.98 1.26-2.88 1.44-1.08 3.06-1.08 1.62-.18 3.06.72t1.44 2.7q0 2.7-.18 7.74 0 4.86-.54 10.98-.36 5.94-1.44 12.24-.9 6.3-2.7 11.52-1.62 5.22-4.14 8.82-2.34 3.42-5.76 3.78-4.14.36-7.2-2.34-2.88-2.88-5.04-7.56-1.98-4.68-3.42-10.62-1.26-5.94-2.16-11.52-.72-5.76-1.08-10.44-.36-4.86-.54-7.38zM325.18 79.38q-1.44 4.86-4.32 7.92t-7.92 3.42q-5.04.18-8.28-2.7t-5.22-7.56q-1.8-4.86-2.34-10.8-.36-5.94.18-11.52.54-5.76 2.16-10.62t3.96-7.56q1.62-1.8 3.96-2.7 2.34-1.08 4.86-1.26 2.7-.18 5.04.72 2.52.72 4.32 2.34v-.54q0-2.16 1.62-3.06 1.8-.9 3.78-.9 2.16 0 4.14.9t2.7 2.52q1.98-1.08 4.32-1.62 2.34-.72 5.22-.54 4.68.18 7.56 3.06t3.96 7.38q1.26 4.32.9 9.72-.18 5.22-1.44 10.44-1.26 5.04-3.42 9.36t-4.86 6.48q4.5 2.88 8.46 1.08t6.84-5.76q3.06-4.14 4.86-9.36t2.16-9.36q0-.9.54-1.26.72-.54 1.26-.54.72 0 1.08.54.54.36.54 1.26-.54 5.04-2.16 10.44-1.62 5.22-4.5 9.72-2.88 4.32-7.2 7.2-4.14 2.88-9.9 2.88-4.68 0-9-1.98l1.26 6.48q0 1.98-1.8 3.24t-4.14 1.62q-2.16.36-4.14-.36-1.98-.54-2.34-2.34l-2.7-16.38zm-3.06-31.68q-.54-1.98-1.62-3.78t-3.06-2.7q-2.52-.54-4.14 1.98t-2.52 6.48q-.9 3.78-1.08 8.28t0 7.92q.18 3.24.72 7.02.72 3.6 1.62 6.66 1.08 2.88 2.52 4.68t3.06 1.08q2.7-2.7 3.96-7.92t1.44-10.98q.36-5.94-.18-10.98-.36-5.22-.72-7.74zm21.6 31.86q3.24-4.32 4.68-11.16 1.62-7.02 1.62-13.5t-1.62-11.16-4.86-4.68q-1.8 0-3.6 1.98t-2.88 6.12q-1.08 3.6-1.08 8.1.18 4.5 1.08 9t2.52 8.64q1.8 3.96 4.14 6.66z"/><path d="M401.96 36.18q.9 1.44 1.62 6.3t.72 11.16q.54 7.02 1.44 15.3.9 8.1 2.52 18.36l4.86-1.44q1.62-.18 2.16 1.08t-.9 2.16l-5.76 1.26q.54 4.32.54 10.8.18 6.48-1.08 12.42-1.08 6.12-4.14 10.62-3.06 4.68-8.82 5.4-4.32.54-7.92-1.44-3.6-1.8-5.94-5.22-2.16-3.24-2.88-7.74-.54-4.32.9-8.82 1.62-4.5 5.58-8.64t10.98-7.02q-.36-1.44-.54-3.06 0-1.62-.36-3.6-2.34 1.98-5.4 3.24-2.88 1.26-6.66.9-4.32-.18-7.38-3.24-3.06-3.24-5.04-7.92-1.8-4.68-2.52-10.26-.54-5.76 0-11.16.72-5.4 2.52-9.72 1.98-4.5 5.04-6.84 2.7-1.98 6.3-2.16 3.78-.18 7.38 1.08.72-.72 2.52-1.62t3.78-1.26q1.98-.54 3.78-.36t2.7 1.44zm-14.22 45.54q2.16-3.24 3.06-9.18 1.08-5.94 1.26-11.88.18-6.12-.18-11.16t-.9-6.66q-.36-.36-1.62-.9-1.08-.72-3.06.18-3.24 2.52-4.86 8.64-1.44 6.12-1.08 12.6.18 3.06.9 6.84.72 3.6 1.8 6.66 1.08 2.88 2.34 4.5 1.26 1.44 2.52 0l-.18.36zm8.82 12.42q-6.12 2.7-9.18 8.1t-3.42 10.62q-.18 5.22 1.98 9.18 2.34 3.96 6.84 3.96 3.06 0 4.14-3.78 1.26-3.78 1.26-9 0-5.04-.72-10.44-.54-5.4-.9-8.64zM451.18 36.18q.9 1.44 1.62 6.3t.72 11.16q.54 7.02 1.44 15.3.9 8.1 2.52 18.36l4.86-1.44q1.62-.18 2.16 1.08t-.9 2.16l-5.76 1.26q.54 4.32.54 10.8.18 6.48-1.08 12.42-1.08 6.12-4.14 10.62-3.06 4.68-8.82 5.4-4.32.54-7.92-1.44-3.6-1.8-5.94-5.22-2.16-3.24-2.88-7.74-.54-4.32.9-8.82 1.62-4.5 5.58-8.64t10.98-7.02q-.36-1.44-.54-3.06 0-1.62-.36-3.6-2.34 1.98-5.4 3.24-2.88 1.26-6.66.9-4.32-.18-7.38-3.24-3.06-3.24-5.04-7.92-1.8-4.68-2.52-10.26-.54-5.76 0-11.16.72-5.4 2.52-9.72 1.98-4.5 5.04-6.84 2.7-1.98 6.3-2.16 3.78-.18 7.38 1.08.72-.72 2.52-1.62t3.78-1.26q1.98-.54 3.78-.36t2.7 1.44zm-14.22 45.54q2.16-3.24 3.06-9.18 1.08-5.94 1.26-11.88.18-6.12-.18-11.16t-.9-6.66q-.36-.36-1.62-.9-1.08-.72-3.06.18-3.24 2.52-4.86 8.64-1.44 6.12-1.08 12.6.18 3.06.9 6.84.72 3.6 1.8 6.66 1.08 2.88 2.34 4.5 1.26 1.44 2.52 0l-.18.36zm8.82 12.42q-6.12 2.7-9.18 8.1t-3.42 10.62q-.18 5.22 1.98 9.18Q437.5 126 442 126q3.06 0 4.14-3.78 1.26-3.78 1.26-9 0-5.04-.72-10.44-.54-5.4-.9-8.64zM488.88 89.1q-6.84 0-11.88-3.96-4.86-3.96-7.92-9.9-2.88-6.12-3.6-13.14t.9-12.96q1.8-5.94 6.12-9.72 4.5-3.78 11.7-3.6 4.68.18 7.56 3.06t3.96 7.38q1.26 4.32 1.08 9.72-.18 5.22-1.62 10.44-1.26 5.04-3.42 9.36t-4.86 6.48q4.5 2.88 8.46 1.08t6.84-5.76q3.06-4.14 4.86-9.36t2.16-9.36q0-.9.54-1.26.72-.54 1.26-.54.72 0 1.08.54.54.36.54 1.26-.54 5.04-2.16 10.44-1.62 5.22-4.5 9.72-2.88 4.32-7.2 7.2-4.14 2.88-9.9 2.88zm-4.32-9.54q3.24-4.32 4.68-11.16 1.62-7.02 1.62-13.5t-1.62-11.16-4.86-4.68q-1.8 0-3.6 1.98t-2.88 6.12q-1.08 3.6-1.08 8.1.18 4.5 1.08 9t2.52 8.64q1.8 3.96 4.14 6.66z"/><path d="M560.75 88.56q-1.44 1.8-3.78 3.06-2.16 1.44-5.22 1.8-3.96.36-7.2-2.52-3.24-3.06-5.22-10.62-.54-2.34-1.08-5.94-.36-3.78-.9-8.1-.36-4.32-.9-8.64-.54-4.5-1.26-8.1-.9-3.78-2.52-5.94-1.44-2.16-3.42-1.8-3.06 1.44-4.32 7.56-1.26 5.76-1.62 16.74-.18 10.8-.18 24.84 0 1.62-1.98 2.34-1.98.9-4.32.72-2.16 0-4.14-.9-1.98-.72-2.16-2.16-.72-7.92-1.08-14.58-.18-6.66-.36-12.96 0-6.48-.18-12.96t-.9-14.04q.18-1.98 1.98-2.88 1.98-.9 4.14-.72 2.34 0 4.32 1.08 1.98.9 2.16 2.52l1.26 9.18q.9-2.88 3.06-5.04 2.16-2.34 4.86-3.6t5.4-1.44q2.88-.18 5.4.9 3.06 1.44 4.86 4.68t2.7 7.74q1.08 4.32 1.62 9.36.54 4.86.9 9.72 0 .72.18 3.78.36 3.06.9 6.48t1.44 6.3 2.16 3.24q1.8.54 5.4-5.76 1.44-2.7 2.52-5.94 1.08-3.42 1.8-6.66.9-3.24 1.44-5.94.54-2.88.72-4.5.18-.9.72-1.26.54-.54 1.08-.54.72 0 1.08.54.54.36.54 1.26-.18 2.16-.9 6.12t-1.98 8.28q-1.08 4.32-2.88 8.46t-4.14 6.84z"/></svg>
